<?xml version="1.0" encoding="utf-8"?>
<svg viewBox="0 0 500 500" width="500" height="500" xmlns="http://www.w3.org/2000/svg">
  <ellipse style="stroke: rgb(18, 18, 18); fill: rgb(18, 18, 18);" cx="250" cy="250" rx="250" ry="250"/>
  <path d="M 166.724 131.802 L 233.615 131.802 L 223.893 84.662 L 184.574 84.662 C 180.028 84.662 176.342 80.976 176.342 76.43 C 176.342 71.884 180.028 68.198 184.574 68.198 L 315.425 68.198 C 319.971 68.198 323.657 71.884 323.657 76.43 C 323.657 80.976 319.971 84.662 315.425 84.662 L 276.105 84.662 L 266.369 131.802 L 333.276 131.802 C 370.127 131.802 400 161.675 400 198.526 L 400 365.078 C 400 401.929 370.127 431.802 333.276 431.802 L 166.724 431.802 C 129.873 431.802 100 401.929 100 365.078 L 100 198.526 C 100 161.675 129.873 131.802 166.724 131.802 Z M 138.648 207.713 L 138.648 266.638 C 138.648 274.295 144.856 280.503 152.513 280.503 L 340.554 280.503 C 348.211 280.503 354.419 274.295 354.419 266.638 L 354.419 207.713 C 354.419 200.056 348.211 193.848 340.554 193.848 L 152.513 193.848 C 144.856 193.848 138.648 200.056 138.648 207.713 Z M 272.011 325.216 L 272.011 375.737 C 272.011 380.092 275.541 383.622 279.896 383.622 L 279.897 383.622 C 284.252 383.622 287.782 380.092 287.782 375.737 L 287.782 325.216 C 287.782 320.861 284.252 317.331 279.897 317.331 L 279.896 317.331 C 275.541 317.331 272.011 320.861 272.011 325.216 Z M 245.148 325.216 L 245.148 375.737 C 245.148 380.092 248.678 383.622 253.033 383.622 L 253.034 383.622 C 257.389 383.622 260.919 380.092 260.919 375.737 L 260.919 325.216 C 260.919 320.861 257.389 317.331 253.034 317.331 L 253.033 317.331 C 248.678 317.331 245.148 320.861 245.148 325.216 Z M 215.598 325.216 L 215.598 375.737 C 215.598 380.092 219.128 383.622 223.483 383.622 L 223.484 383.622 C 227.839 383.622 231.369 380.092 231.369 375.737 L 231.369 325.216 C 231.369 320.861 227.839 317.331 223.484 317.331 L 223.483 317.331 C 219.128 317.331 215.598 320.861 215.598 325.216 Z M 160.225 317.331 C 148.308 317.331 138.648 327.224 138.648 339.428 C 138.648 351.632 148.308 361.525 160.225 361.525 C 172.142 361.525 181.802 351.632 181.802 339.428 C 181.802 327.224 172.142 317.331 160.225 317.331 Z M 332.842 317.331 C 320.925 317.331 311.265 327.224 311.265 339.428 C 311.265 351.632 320.925 361.525 332.842 361.525 C 344.759 361.525 354.419 351.632 354.419 339.428 C 354.419 327.224 344.759 317.331 332.842 317.331 Z M 262.449 84.662 L 237.547 84.662 L 247.269 131.802 L 252.713 131.802 L 262.449 84.662 Z" style="stroke: rgb(98, 167, 210); stroke-width: 0px; stroke-opacity: 0; fill: rgb(146, 216, 221);"/>
</svg>